<svg xmlns="http://www.w3.org/2000/svg" viewBox="0 0 1584 396" fill="none">
  <defs>
    <linearGradient id="glow" x1="0%" y1="0%" x2="100%" y2="100%">
      <stop offset="0%" stop-color="#06b6d4"/>
      <stop offset="50%" stop-color="#22c55e"/>
      <stop offset="100%" stop-color="#06b6d4"/>
    </linearGradient>
    <linearGradient id="glowVert" x1="50%" y1="0%" x2="50%" y2="100%">
      <stop offset="0%" stop-color="#22c55e"/>
      <stop offset="100%" stop-color="#06b6d4"/>
    </linearGradient>
    <linearGradient id="shieldFill" x1="50%" y1="0%" x2="50%" y2="100%">
      <stop offset="0%" stop-color="#06b6d4" stop-opacity="0.1"/>
      <stop offset="60%" stop-color="#0f172a" stop-opacity="0.05"/>
      <stop offset="100%" stop-color="#22c55e" stop-opacity="0.08"/>
    </linearGradient>
    <linearGradient id="flagBody" x1="0%" y1="0%" x2="100%" y2="100%">
      <stop offset="0%" stop-color="#22c55e"/>
      <stop offset="100%" stop-color="#06b6d4"/>
    </linearGradient>
    <linearGradient id="bgGrad" x1="0%" y1="0%" x2="100%" y2="100%">
      <stop offset="0%" stop-color="#0b1120"/>
      <stop offset="50%" stop-color="#0f172a"/>
      <stop offset="100%" stop-color="#0b1120"/>
    </linearGradient>
    <filter id="neon" x="-25%" y="-25%" width="150%" height="150%">
      <feGaussianBlur in="SourceGraphic" stdDeviation="2" result="blur"/>
      <feMerge><feMergeNode in="blur"/><feMergeNode in="SourceGraphic"/></feMerge>
    </filter>
    <filter id="textGlow" x="-10%" y="-10%" width="120%" height="120%">
      <feGaussianBlur in="SourceGraphic" stdDeviation="1.5" result="blur"/>
      <feMerge><feMergeNode in="blur"/><feMergeNode in="SourceGraphic"/></feMerge>
    </filter>
    <filter id="outerGlow" x="-40%" y="-40%" width="180%" height="180%">
      <feGaussianBlur in="SourceAlpha" stdDeviation="6" result="blur"/>
      <feFlood flood-color="#06b6d4" flood-opacity="0.2" result="color"/>
      <feComposite in="color" in2="blur" operator="in" result="glow"/>
      <feMerge><feMergeNode in="glow"/><feMergeNode in="SourceGraphic"/></feMerge>
    </filter>
    <filter id="flagGlow" x="-40%" y="-40%" width="180%" height="180%">
      <feGaussianBlur in="SourceAlpha" stdDeviation="3" result="blur"/>
      <feFlood flood-color="#22c55e" flood-opacity="0.35" result="color"/>
      <feComposite in="color" in2="blur" operator="in" result="glow"/>
      <feMerge><feMergeNode in="glow"/><feMergeNode in="SourceGraphic"/></feMerge>
    </filter>
    <clipPath id="shieldClip">
      <path d="M160 58 L80 90 L80 210 Q80 280 160 310 Q240 280 240 210 L240 90 Z"/>
    </clipPath>
  </defs>

  <!-- Background -->
  <rect width="1584" height="396" fill="url(#bgGrad)"/>

  <!-- Subtle grid -->
  <g opacity="0.03">
    <line x1="0" y1="99" x2="1584" y2="99" stroke="#06b6d4" stroke-width="1"/>
    <line x1="0" y1="198" x2="1584" y2="198" stroke="#06b6d4" stroke-width="1"/>
    <line x1="0" y1="297" x2="1584" y2="297" stroke="#06b6d4" stroke-width="1"/>
    <line x1="396" y1="0" x2="396" y2="396" stroke="#06b6d4" stroke-width="1"/>
    <line x1="792" y1="0" x2="792" y2="396" stroke="#06b6d4" stroke-width="1"/>
    <line x1="1188" y1="0" x2="1188" y2="396" stroke="#06b6d4" stroke-width="1"/>
  </g>

  <!-- Radial glow behind shield -->
  <circle cx="160" cy="190" r="180" fill="#06b6d4" opacity="0.04"/>

  <!-- Shield -->
  <path d="M160 58 L80 90 L80 210 Q80 280 160 310 Q240 280 240 210 L240 90 Z"
        fill="url(#shieldFill)" stroke="url(#glow)" stroke-width="3.5" stroke-linejoin="round" filter="url(#outerGlow)"/>

  <!-- Circuit grid inside shield -->
  <g clip-path="url(#shieldClip)" opacity="0.06">
    <line x1="80" y1="130" x2="240" y2="130" stroke="#06b6d4" stroke-width="1"/>
    <line x1="80" y1="170" x2="240" y2="170" stroke="#06b6d4" stroke-width="1"/>
    <line x1="80" y1="210" x2="240" y2="210" stroke="#06b6d4" stroke-width="1"/>
    <line x1="80" y1="250" x2="240" y2="250" stroke="#06b6d4" stroke-width="1"/>
    <line x1="120" y1="58" x2="120" y2="310" stroke="#06b6d4" stroke-width="1"/>
    <line x1="160" y1="58" x2="160" y2="310" stroke="#06b6d4" stroke-width="1"/>
    <line x1="200" y1="58" x2="200" y2="310" stroke="#06b6d4" stroke-width="1"/>
  </g>

  <!-- Inner shield -->
  <path d="M160 72 L94 100 L94 206 Q94 270 160 296 Q226 270 226 206 L226 100 Z"
        fill="none" stroke="url(#glow)" stroke-width="1" stroke-linejoin="round" opacity="0.2"/>

  <!-- Corner nodes -->
  <circle cx="94" cy="100" r="2" fill="url(#glow)" opacity="0.3"/>
  <circle cx="226" cy="100" r="2" fill="url(#glow)" opacity="0.3"/>
  <circle cx="160" cy="72" r="2" fill="url(#glow)" opacity="0.3"/>

  <!-- Terminal >_ -->
  <g filter="url(#neon)">
    <path d="M118 155 L148 178 L118 201" stroke="#22c55e" stroke-width="7" stroke-linecap="round" stroke-linejoin="round" fill="none"/>
    <rect x="158" y="195" width="34" height="6" rx="3" fill="#22c55e"/>
  </g>

  <!-- Flag -->
  <g filter="url(#flagGlow)">
    <rect x="158" y="34" width="3.5" height="48" rx="1.75" fill="url(#flagBody)"/>
    <path d="M161.5 38 C172 33 182 42 192 36 L192 58 C182 64 172 55 161.5 60 Z" fill="url(#flagBody)" opacity="0.85"/>
    <path d="M170 43 C175 40 180 45 186 42 L186 54 C180 57 175 52 170 55 Z" fill="#0f172a" opacity="0.2"/>
  </g>

  <!-- "DevOps" text -->
  <text x="310" y="195" font-family="'Inter', 'SF Pro Display', 'Segoe UI', system-ui, sans-serif" font-weight="800" font-size="96" letter-spacing="-3" fill="#e2e8f0" filter="url(#textGlow)">Dev<tspan fill="url(#glow)">Ops</tspan></text>

  <!-- "CTF" text -->
  <text x="720" y="195" font-family="'JetBrains Mono', 'SF Mono', 'Fira Code', monospace" font-weight="700" font-size="88" letter-spacing="4" fill="url(#glow)" filter="url(#neon)">CTF</text>

  <!-- Separator dot -->
  <circle cx="706" cy="172" r="5" fill="url(#glow)" opacity="0.4"/>

  <!-- Tagline -->
  <text x="310" y="240" font-family="'Inter', 'SF Pro Display', system-ui, sans-serif" font-weight="400" font-size="22" letter-spacing="1" fill="#94a3b8">Train like it's production. Learn like it's a game.</text>

  <!-- Stats bar at bottom -->
  <g>
    <rect x="310" y="280" width="700" height="1" fill="url(#glow)" opacity="0.15"/>
    <text x="310" y="310" font-family="'JetBrains Mono', monospace" font-weight="600" font-size="16" fill="url(#glow)">150+</text>
    <text x="370" y="310" font-family="'Inter', system-ui, sans-serif" font-weight="400" font-size="14" fill="#64748b">Challenges</text>

    <circle cx="490" cy="306" r="2" fill="#64748b" opacity="0.4"/>

    <text x="520" y="310" font-family="'JetBrains Mono', monospace" font-weight="600" font-size="16" fill="url(#glow)">10</text>
    <text x="550" y="310" font-family="'Inter', system-ui, sans-serif" font-weight="400" font-size="14" fill="#64748b">Categories</text>

    <circle cx="668" cy="306" r="2" fill="#64748b" opacity="0.4"/>

    <text x="698" y="310" font-family="'JetBrains Mono', monospace" font-weight="600" font-size="16" fill="url(#glow)">&lt;10s</text>
    <text x="748" y="310" font-family="'Inter', system-ui, sans-serif" font-weight="400" font-size="14" fill="#64748b">Spin-up</text>
  </g>

  <!-- Right side decorative elements -->
  <g opacity="0.06">
    <circle cx="1350" cy="120" r="80" stroke="#06b6d4" stroke-width="1" fill="none"/>
    <circle cx="1350" cy="120" r="50" stroke="#22c55e" stroke-width="0.5" fill="none"/>
    <circle cx="1450" cy="280" r="60" stroke="#06b6d4" stroke-width="0.5" fill="none"/>
  </g>

  <!-- Accent lines right side -->
  <line x1="1250" y1="50" x2="1250" y2="346" stroke="url(#glowVert)" stroke-width="0.5" opacity="0.08"/>
  <line x1="1350" y1="30" x2="1350" y2="366" stroke="url(#glowVert)" stroke-width="0.5" opacity="0.05"/>
  <line x1="1450" y1="50" x2="1450" y2="346" stroke="url(#glowVert)" stroke-width="0.5" opacity="0.03"/>

  <!-- URL -->
  <text x="1280" y="340" font-family="'JetBrains Mono', monospace" font-weight="500" font-size="16" fill="#64748b" opacity="0.6">devops-ctf.com</text>
</svg>
